<?xml version="1.0" encoding="UTF-8"?>
<svg width="20px" height="20px" viewBox="0 0 20 20" version="1.1" xmlns="http://www.w3.org/2000/svg" xmlns:xlink="http://www.w3.org/1999/xlink">
    <!-- Generator: Sketch 50.2 (55047) - http://www.bohemiancoding.com/sketch -->
    <title>cloud_up [#1062]</title>
    <desc>Created with Sketch.</desc>
    <defs></defs>
    <g id="Icons" stroke="none" stroke-width="1" fill="none" fill-rule="evenodd">
        <g id="Network-&amp;-Web" transform="translate(-260.000000, -220.000000)" fill="#6C6EF9">
            <g id="icons" transform="translate(20.000000, 20.000000)">
                <path d="M250.006515,206.004967 L246.302249,209.710652 L247.715206,211.12415 L249.007252,209.831609 L249.007252,220 L251.005777,220 L251.005777,209.831609 L252.297824,211.12415 L253.710781,209.710652 L250.006515,206.004967 Z M258.281407,212.704589 C256.525703,214.215053 254.787985,214.002129 253.004302,214.002129 L253.004302,212.002839 C254.859932,212.002839 255.724294,212.13879 256.728553,211.452034 C259.14477,209.799621 257.8847,205.908002 254.902901,206.014964 C253.570884,199.411308 243.183551,201.645515 245.247028,208.445101 C242.618968,206.354843 239.535244,212.002839 245.116125,212.002839 L247.008728,212.002839 L247.008728,214.002129 L244.211792,214.002129 C240.878253,214.002129 238.823769,210.443392 240.73236,207.722358 C241.644687,206.422819 243.075631,206.101933 243.075631,206.101933 C243.735144,200.990747 249.568838,198.291705 253.889649,201.184678 C255.74428,202.427237 256.44776,204.242593 256.44776,204.242593 C260.159021,205.370193 261.278195,210.126505 258.281407,212.704589 L258.281407,212.704589 Z" id="cloud_up-[#1062]"></path>
            </g>
        </g>
    </g>
</svg>