<?xml version="1.0" encoding="utf-8"?>
<!-- Generator: Adobe Illustrator 21.0.0, SVG Export Plug-In . SVG Version: 6.00 Build 0)  -->
<svg version="1.1" id="Layer_1" xmlns="http://www.w3.org/2000/svg" xmlns:xlink="http://www.w3.org/1999/xlink" x="0px" y="0px"
	 viewBox="0 0 630 630" style="enable-background:new 0 0 630 630;" xml:space="preserve">
<style type="text/css">
	.st0{fill:#E7E8EA;}
	.st1{fill:#FFFFFF;}
	.st2{fill:#BBBCC1;}
	.st3{opacity:0.64;fill:#FFFFFF;}
</style>
<rect class="st0" width="630" height="630"/>
<polygon class="st0" points="125,619.5 492,619.5 492,492.5 458,439 385,416.5 303.5,518 230,416.5 172,430.5 130,468.5 "/>
<polygon class="st1" points="267.5,370 239.5,420 305,527 386.5,423 344.5,352 274.5,356.5 "/>
<path class="st2" d="M256.5,190l-48,54l-14-61c0,0,31-45,31-48s55-24,55-24l59-13c0,0,49,36,52,37s30,61,30,61l-8,39l-27-26l-61-4
	h-49L256.5,190z"/>
<polygon class="st1" points="203.5,248 256.5,190 327.5,210 386.5,209 406.5,236 378.5,321 320.5,361 263.5,351 227.5,310 
	213.5,254 "/>
<g>
	<path d="M313,698.1L477.5,627h14.3c6.4,0,11.5-5.2,11.5-11.5V497.6c0.1-42.8-34-77.7-76.3-79.1c-0.4,0-59.3,1.7-68.1-61.5
		c9.7-6.8,18.7-15.6,26.6-26.3c15.4-20.8,25.3-46.9,28.8-75.2c1.2-1.1,2.2-2.5,2.9-4.1c6.4-15.2,9.6-31.5,9.6-48.3
		c0-64.6-48.7-117.1-108.6-117.1c-15.7,0-30.9,3.6-45.2,10.7c-5.5,0.4-10.8,1.4-16,2.9c-24.6,7.1-44.6,25.3-56.4,51.4
		c-11.4,25.3-13.7,55-6.3,83.7c1.5,6.1,3.5,12,5.9,17.7c0.6,1.5,1.6,2.9,2.7,3.9c5.7,44.1,26.7,80.6,55.3,100.6
		c-8.8,63.3-67.7,61.5-68.1,61.6c-42.4,1.4-76.4,36.3-76.4,79.1v117.9c0,6.4,5.2,11.5,11.5,11.5h19.3 M263.4,121.8
		c4.2-1.2,8.6-1.9,13.2-2.1c1.7-0.1,3.3-0.5,4.8-1.3c11.7-6.1,24-9.2,36.7-9.2c47.2,0,85.6,42.2,85.6,94.1c0,1.6,0,3.1-0.1,4.6
		c-9.1-9.3-21.9-15.1-35.9-15.1h-78.6c-4.7,0-9.1-1.5-12.8-4.2c-3.2-2.4-5.6-5.6-7.1-9.2c-2.3-5.7-7.9-9.2-14-8.8
		c-6.1,0.4-11.3,4.6-12.8,10.6c-4.6,17.5-13.6,33.6-26.1,46.7C204.8,180,225.7,132.6,263.4,121.8z M253.4,321.1
		c-15-18.3-24.8-43.1-27.9-70.2c14.5-13,26-29.1,33.5-47c1.1,1,2.3,2,3.6,3c7.7,5.8,16.9,8.8,26.6,8.8h78.6c11.1,0,20.7,6.7,25,16.2
		c0,0.1,0,0.2,0,0.2c0,65.1-37.8,118-84.2,118C288.3,350.3,268.7,339.9,253.4,321.1z M279.9,368.2c9.1,3.3,18.8,5.1,28.7,5.1
		c9.8,0,19.4-1.7,28.6-5c4.2,22,16.4,41.2,33.5,54.4l-60.5,86.2c-0.4,0.6-0.9,0.8-1.6,0.8c-0.7,0-1.2-0.3-1.6-0.8l-60.6-86.2
		C263.4,409.4,275.6,390.2,279.9,368.2z M136.7,603.9V497.5c0-30.9,25.2-56.1,56.1-56.1c0.4,0,19-0.5,33.6-7.1l61.6,87.8
		c4.7,6.7,12.3,10.7,20.5,10.7l0,0c8.2,0,15.8-4,20.5-10.7l61.6-87.8c16.7,7.1,33.2,7.1,33.6,7.1c30.9,0,56.1,25.2,56.1,56.1
		l0,106.4l0,0L313,675"/>
</g>
<rect class="st3" width="630" height="630"/>
</svg>
